<?xml version="1.0" encoding="UTF-8" standalone="no"?>
<!DOCTYPE svg PUBLIC "-//W3C//DTD SVG 1.1//EN"
 "http://www.w3.org/Graphics/SVG/1.1/DTD/svg11.dtd">
<!-- Generated by graphviz version 2.47.0 (20210316.0004)
 -->
<!-- Title: dependencies Pages: 1 -->
<svg width="634pt" height="211pt"
 viewBox="0.00 0.00 634.00 211.00" xmlns="http://www.w3.org/2000/svg" xmlns:xlink="http://www.w3.org/1999/xlink">
<g id="graph0" class="graph" transform="scale(1 1) rotate(0) translate(4 207)">
<title>dependencies</title>
<polygon fill="white" stroke="transparent" points="-4,4 -4,-207 630,-207 630,4 -4,4"/>
<text text-anchor="start" x="292.01" y="-42.4" font-family="Times-12" font-weight="bold" font-size="14.00">Legend</text>
<polygon fill="#ffffb3" stroke="transparent" points="79,-10 79,-30 99,-30 99,-10 79,-10"/>
<text text-anchor="start" x="102.63" y="-15.4" font-family="Times-12" font-size="14.00"> &#160;Declarations</text>
<polygon fill="#8dd3c7" stroke="transparent" points="192,-10 192,-30 212,-30 212,-10 192,-10"/>
<text text-anchor="start" x="215.73" y="-15.4" font-family="Times-12" font-size="14.00"> &#160;Module</text>
<polygon fill="#80b1d3" stroke="transparent" points="278,-10 278,-30 298,-30 298,-10 278,-10"/>
<text text-anchor="start" x="301.78" y="-15.4" font-family="Times-12" font-size="14.00"> &#160;Bootstrap</text>
<polygon fill="#fdb462" stroke="transparent" points="375,-10 375,-30 395,-30 395,-10 375,-10"/>
<text text-anchor="start" x="398.67" y="-15.4" font-family="Times-12" font-size="14.00"> &#160;Providers</text>
<polygon fill="#fb8072" stroke="transparent" points="471,-10 471,-30 491,-30 491,-10 471,-10"/>
<text text-anchor="start" x="494.73" y="-15.4" font-family="Times-12" font-size="14.00"> &#160;Exports</text>
<g id="clust1" class="cluster">
<title>cluster_AppModule</title>
<polygon fill="none" stroke="black" stroke-dasharray="1,5" points="8,-70 8,-195 618,-195 618,-70 8,-70"/>
</g>
<g id="clust3" class="cluster">
<title>cluster_AppModule_imports</title>
<polygon fill="none" stroke="black" points="290,-78 290,-130 610,-130 610,-78 290,-78"/>
</g>
<g id="clust6" class="cluster">
<title>cluster_AppModule_providers</title>
<polygon fill="none" stroke="black" points="16,-78 16,-130 282,-130 282,-78 16,-78"/>
</g>
<!-- AuthModule -->
<g id="node1" class="node">
<title>AuthModule</title>
<polygon fill="#8dd3c7" stroke="black" points="601.55,-122 598.55,-126 577.55,-126 574.55,-122 514.45,-122 514.45,-86 601.55,-86 601.55,-122"/>
<text text-anchor="middle" x="558" y="-99.8" font-family="Times,serif" font-size="14.00">AuthModule</text>
</g>
<!-- AppModule -->
<g id="node4" class="node">
<title>AppModule</title>
<polygon fill="#8dd3c7" stroke="black" points="385.66,-187 382.66,-191 361.66,-191 358.66,-187 302.34,-187 302.34,-151 385.66,-151 385.66,-187"/>
<text text-anchor="middle" x="344" y="-164.8" font-family="Times,serif" font-size="14.00">AppModule</text>
</g>
<!-- AuthModule&#45;&gt;AppModule -->
<g id="edge1" class="edge">
<title>AuthModule&#45;&gt;AppModule</title>
<path fill="none" stroke="black" d="M558,-122.28C558,-143.32 558,-175 558,-175 558,-175 395.77,-175 395.77,-175"/>
<polygon fill="black" stroke="black" points="395.77,-171.5 385.77,-175 395.77,-178.5 395.77,-171.5"/>
</g>
<!-- PostsModule -->
<g id="node2" class="node">
<title>PostsModule</title>
<polygon fill="#8dd3c7" stroke="black" points="496.61,-122 493.61,-126 472.61,-126 469.61,-122 407.39,-122 407.39,-86 496.61,-86 496.61,-122"/>
<text text-anchor="middle" x="452" y="-99.8" font-family="Times,serif" font-size="14.00">PostsModule</text>
</g>
<!-- PostsModule&#45;&gt;AppModule -->
<g id="edge2" class="edge">
<title>PostsModule&#45;&gt;AppModule</title>
<path fill="none" stroke="black" d="M452,-122.02C452,-139.37 452,-163 452,-163 452,-163 395.76,-163 395.76,-163"/>
<polygon fill="black" stroke="black" points="395.76,-159.5 385.76,-163 395.76,-166.5 395.76,-159.5"/>
</g>
<!-- UsersModule -->
<g id="node3" class="node">
<title>UsersModule</title>
<polygon fill="#8dd3c7" stroke="black" points="389.92,-122 386.92,-126 365.92,-126 362.92,-122 298.08,-122 298.08,-86 389.92,-86 389.92,-122"/>
<text text-anchor="middle" x="344" y="-99.8" font-family="Times,serif" font-size="14.00">UsersModule</text>
</g>
<!-- UsersModule&#45;&gt;AppModule -->
<g id="edge3" class="edge">
<title>UsersModule&#45;&gt;AppModule</title>
<path fill="none" stroke="black" d="M344,-122.11C344,-122.11 344,-140.99 344,-140.99"/>
<polygon fill="black" stroke="black" points="340.5,-140.99 344,-150.99 347.5,-140.99 340.5,-140.99"/>
</g>
<!-- AppService -->
<g id="node5" class="node">
<title>AppService</title>
<ellipse fill="#fdb462" stroke="black" cx="217" cy="-104" rx="56.74" ry="18"/>
<text text-anchor="middle" x="217" y="-99.8" font-family="Times,serif" font-size="14.00">AppService</text>
</g>
<!-- AppService&#45;&gt;AppModule -->
<g id="edge4" class="edge">
<title>AppService&#45;&gt;AppModule</title>
<path fill="none" stroke="black" d="M217,-122.02C217,-139.37 217,-163 217,-163 217,-163 292.06,-163 292.06,-163"/>
<polygon fill="black" stroke="black" points="292.06,-166.5 302.06,-163 292.06,-159.5 292.06,-166.5"/>
</g>
<!-- AuthService -->
<g id="node6" class="node">
<title>AuthService</title>
<ellipse fill="#fdb462" stroke="black" cx="83" cy="-104" rx="59.11" ry="18"/>
<text text-anchor="middle" x="83" y="-99.8" font-family="Times,serif" font-size="14.00">AuthService</text>
</g>
<!-- AuthService&#45;&gt;AppModule -->
<g id="edge5" class="edge">
<title>AuthService&#45;&gt;AppModule</title>
<path fill="none" stroke="black" d="M83,-122.28C83,-143.32 83,-175 83,-175 83,-175 292.07,-175 292.07,-175"/>
<polygon fill="black" stroke="black" points="292.07,-178.5 302.07,-175 292.07,-171.5 292.07,-178.5"/>
</g>
</g>
</svg>
